<svg id="visual" viewBox="0 0 900 600" width="900" height="600" xmlns="http://www.w3.org/2000/svg" xmlns:xlink="http://www.w3.org/1999/xlink" version="1.1"><rect x="0" y="0" width="900" height="600" fill="#ffc900"></rect><g transform="translate(926.8629614375733 639.3393807894631)"><path d="M327.9 -348.6C406.3 -324.9 438.5 -203.9 411.8 -109.1C385.1 -14.2 299.5 54.7 234 104.1C168.5 153.4 123.1 183.4 71.3 207.1C19.5 230.9 -38.6 248.4 -138.2 262.8C-237.7 277.3 -378.7 288.6 -438.5 230.9C-498.4 173.2 -477.2 46.4 -424.8 -44.3C-372.3 -135.1 -288.7 -189.7 -212.7 -213.8C-136.7 -237.9 -68.3 -231.5 28.2 -265C124.7 -298.6 249.4 -372.2 327.9 -348.6" fill="#a900ba"></path></g></svg>