<svg id="visual" viewBox="0 0 900 600" width="900" height="600" xmlns="http://www.w3.org/2000/svg" xmlns:xlink="http://www.w3.org/1999/xlink" version="1.1"><rect x="0" y="0" width="900" height="600" fill="#01375d"></rect><g fill="none" stroke="#101314" stroke-width="4"><path d="M0 -114.2L25.6 -35.3L108.6 -35.3L41.5 13.5L67.1 92.4L0 43.6L-67.1 92.4L-41.5 13.5L-108.6 -35.3L-25.6 -35.3Z" transform="translate(510 454)"></path><path d="M0 -50L11.2 -15.5L47.6 -15.5L18.2 5.9L29.4 40.5L0 19.1L-29.4 40.5L-18.2 5.9L-47.6 -15.5L-11.2 -15.5Z" transform="translate(446 153)"></path><path d="M0 -104.8L23.5 -32.4L99.6 -32.4L38.1 12.4L61.6 84.8L0 40L-61.6 84.8L-38.1 12.4L-99.6 -32.4L-23.5 -32.4Z" transform="translate(222 312)"></path><path d="M0 -65.1L14.6 -20.1L61.9 -20.1L23.7 7.7L38.3 52.7L0 24.9L-38.3 52.7L-23.7 7.7L-61.9 -20.1L-14.6 -20.1Z" transform="translate(749 310)"></path></g></svg>